<?xml version="1.0" encoding="utf-8"?>
<!-- Generator: Adobe Illustrator 27.5.0, SVG Export Plug-In . SVG Version: 6.00 Build 0)  -->
<svg version="1.1" xmlns="http://www.w3.org/2000/svg" xmlns:xlink="http://www.w3.org/1999/xlink" x="0px" y="0px"
	 viewBox="0 0 500 500" style="enable-background:new 0 0 500 500;" xml:space="preserve">
<g id="BACKGROUND">
	
</g>
<g id="OBJECTS">
	<circle style="fill:#DCE5DE;" cx="250" cy="250" r="158.25"/>
	<g>
		<path d="M433.546,382.995c-0.392-1.734-0.631-3.898-1.625-4.496c-0.994-0.599-2.859-0.784-3.562-1.518
			c-0.703-0.734-1.804-2.918-2.059-4.361c-0.255-1.445-0.957-2.179-1.619-4.783c-0.395-1.56-0.401-3.704-0.594-5.527
			c-0.13-1.224-0.289-2.115-0.505-3.128l0.51,0.779c0,0,0.786-0.846,0.829-2.763c0.042-1.875-0.066-3.454-0.024-5.322
			c0.042-1.869,0.394-4.738,0.136-6.038l0.595,1.261c0,0,0.947-1.609,0.843-3.337c-0.105-1.728,0.348-6.945,0.105-8.963
			c-0.242-2.019-0.811-2.32-0.2-3.888c0.61-1.569,1.668-3.846,1.871-6.431c0.202-2.584,0.147-12.941-0.932-16.13
			c-1.08-3.189-2.842-7.975-3.09-9.706c-0.249-1.732-0.311-5.329-1.401-8.086c-1.088-2.758-1.34-4.345-3.582-6.985
			c-2.242-2.639-2.638-4.23-3.906-5.409c-1.268-1.18-2.497-4.085-3.595-6.41c-1.099-2.326-1.909-4.646-2.736-6.247
			c-0.828-1.6-0.364-3.028-0.041-4.603c0.323-1.575,1.914-1.971,1.914-1.971l-1.006-0.022c0,0,0.173-1.29,1.63-2.121
			c1.457-0.83,4.195-1.056,5.191-0.603c0.997,0.455,2.418,1.206,2.418,1.206l-0.256-1.444c0,0,1.141,0.641,2.189,1.615
			c0.386,0.357,0.724,1.088,1.379,1.822c0.654,0.734,1.652,1.139,1.652,1.139l-0.083-0.529c0,0,0.755,0.701,1.519,0.931
			c0.528,0.158,1.11,0.314,1.567,0.385c2.15,0.336,2.931-0.27,2.931-0.27l-0.605-0.828c0,0,1.236,0.458,1.515,0.896
			c0,0,0.642-0.848,0.543-2.864c-0.098-2.016-0.507-3.032-1.343-4.202l0.639,0.374c0,0-1.563-4.062-3.832-5.479
			c-2.27-1.419-3.982-2.032-3.982-2.032s1.163-0.549,1.518-0.325c0,0-3.465-2.595-7.637-2.618c-4.17-0.022-6.482,0.43-6.482,0.43
			l0.592-0.778c0,0-2.58-0.417-6.72,1.432c-4.141,1.849-5.874,5.333-5.874,5.333l-0.108-1.585c0,0-1.883,0.604-2.86,5.689
			c-0.978,5.084-1.233,10.04-0.486,11.999c0,0-0.91-1.099-1.046-1.461c0,0-0.639,2.862,0.171,5.182
			c0.811,2.319,3.188,5.322,3.188,5.322s-2.791-0.614-4.988-0.951c-2.198-0.337-11.399-0.544-14.76-0.332
			c-3.361,0.211-6.596-0.917-9.957-0.704c-3.361,0.212-7.123,1.182-7.123,1.182s-3.88-2.292-6.37-2.444
			c-2.489-0.152-5.472,0.26-5.472,0.26s-1.69-1.572-4.076-2.105c-2.384-0.533-5.056-1.168-5.056-1.168s1.446-0.352,2.116-0.24
			c0,0-1.04-0.694-3.327-1.321c-2.287-0.626-3.024-1.986-4.27-2.014c-1.246-0.028-3.41-1.898-3.41-1.898s-3.602-1.808-4.936-2.221
			c-1.333-0.414-2.357-1.779-3.588-2.478c-1.231-0.699-9.79-8.083-13.069-7.294c-3.277,0.789-2.966,3.961-2.843,7.031
			c0.093,2.316,0.416,7.105,0.416,7.105s-2.932,2.428-4.308,3.931c-1.376,1.503-2.271,2.922-3.171,4.531
			c-0.899,1.61-2.188,3.499-2.617,5.502c-0.428,2.005-0.775,4.585-0.775,4.585s-8.176,1.159-10.938,4.548
			c-2.761,3.39,1.608,5.214,3.683,6.795c2.074,1.581,6.815,3.989,6.815,3.989s1.242,4.439,2.157,6.377
			c0.613,1.299,2.333,3.051,3.678,4.649c-0.27,0.208-0.543,0.424-0.817,0.659c-0.355,0.329-0.754,0.633-1.1,1.009
			c-0.351,0.361-0.734,0.735-1.055,1.127c-0.665,0.813-1.24,1.659-1.754,2.475c-0.029,0.047-0.056,0.092-0.084,0.138
			c-0.219,0.074-0.434,0.144-0.636,0.204c-0.656,0.187-1.207,0.346-1.599,0.436c-0.392,0.091-0.616,0.144-0.616,0.144
			s0.232,0.008,0.635-0.022c0.402-0.034,0.982-0.078,1.663-0.219c0.081-0.017,0.169-0.036,0.254-0.053
			c-0.349,0.589-0.656,1.15-0.931,1.648c-0.371,0.674-0.639,1.257-0.836,1.658c-0.193,0.405-0.292,0.642-0.292,0.642
			s0.562-0.854,1.405-2.134c0.378-0.589,0.837-1.256,1.325-1.967c0.058-0.015,0.114-0.026,0.173-0.042
			c0.389-0.096,0.789-0.233,1.201-0.383c0.413-0.147,0.826-0.337,1.239-0.545c0.418-0.209,0.83-0.466,1.197-0.727
			c0.394-0.282,0.748-0.573,1.092-0.884c0.337-0.312,0.661-0.627,0.956-0.948c0.03-0.033,0.057-0.065,0.086-0.098
			c0.011,0.02,0.024,0.042,0.034,0.062c0.17,0.361,0.448,0.683,0.8,0.974c-0.044,0.101-0.089,0.2-0.136,0.302
			c-0.151,0.394-0.311,0.803-0.437,1.232c-0.049,0.221-0.1,0.444-0.149,0.667l-0.037,0.168c-0.007,0.035-0.012,0.041-0.02,0.1
			l-0.008,0.082l-0.028,0.331c-0.046,0.435-0.038,0.893-0.027,1.345c0,0.453,0.066,0.875,0.094,1.295
			c0.092,0.83,0.205,1.597,0.3,2.252c0.036,0.327,0.095,0.628,0.117,0.894c0.022,0.266,0.053,0.5,0.058,0.692
			c-0.01,0.38-0.008,0.608-0.008,0.608s0.048-0.214,0.12-0.603c0.024-0.194,0.028-0.431,0.045-0.705
			c0.018-0.273,0.003-0.578-0.003-0.914c-0.021-0.668-0.073-1.442-0.124-2.265c-0.013-0.407-0.045-0.84-0.043-1.259
			c-0.005-0.42-0.008-0.847,0.044-1.293l0.024-0.331l0.006-0.083l0.014-0.063l0.032-0.155c0.044-0.208,0.087-0.415,0.129-0.619
			c0.117-0.406,0.24-0.808,0.372-1.193c0.025-0.062,0.047-0.123,0.071-0.185c0.353,0.235,0.758,0.446,1.189,0.639
			c-0.012,0.06-0.023,0.119-0.035,0.18c-0.057,0.406-0.115,0.825-0.175,1.251c-0.028,0.43-0.057,0.868-0.085,1.305
			c0.009,0.435,0.018,0.871,0.026,1.299c0.031,0.432,0.079,0.857,0.118,1.267c0.11,0.811,0.252,1.56,0.405,2.194
			c0.311,1.269,0.638,2.076,0.638,2.076s-0.035-0.214-0.095-0.588c-0.065-0.373-0.129-0.909-0.218-1.547
			c-0.038-0.319-0.079-0.667-0.122-1.033c-0.033-0.366-0.068-0.752-0.105-1.152c-0.022-0.397-0.035-0.808-0.066-1.223
			c-0.002-0.421-0.004-0.849-0.008-1.279c0.022-0.424,0.044-0.849,0.065-1.267c0.042-0.418,0.082-0.83,0.122-1.228
			c0.002-0.019,0.005-0.035,0.007-0.053c0.255,0.102,0.515,0.2,0.781,0.291c0.115,0.853,0.238,1.76,0.361,2.668
			c0.057,0.46,0.126,0.93,0.222,1.378c0.101,0.464,0.217,0.907,0.365,1.325c0.144,0.419,0.293,0.821,0.469,1.186
			c0.167,0.369,0.342,0.708,0.511,1.018c0.327,0.622,0.673,1.099,0.908,1.432c0.24,0.332,0.398,0.503,0.398,0.503
			s-0.457-0.816-0.999-2.085c-0.274-0.634-0.541-1.393-0.785-2.211c-0.117-0.411-0.224-0.839-0.313-1.269
			c-0.084-0.449-0.147-0.897-0.215-1.356c-0.116-0.822-0.253-1.636-0.394-2.415c1.084,0.343,2.178,0.609,3.032,0.844
			c2.287,0.626,5.363,0.312,5.363,0.312s2.35,6.381,4.406,8.728c2.057,2.348,3.748,3.92,3.748,3.92s1.622,4.64,3.678,6.987
			c2.057,2.348,4.288,5.466,5.783,7.225c1.494,1.76,4.061,6.996,5.547,9.139c1.486,2.143,0.732,1.55,2.01,4.456
			c1.277,2.905,2.911,6.97,2.859,9.269c-0.052,2.302,0.285,4.418-1.104,6.496c-1.389,2.078-2.548,2.436-4.495,3.735
			c-1.947,1.298-3.284,1.076-3.511,2.606c-0.226,1.528-0.287,4.211,1.055,4.241c1.342,0.03,2.675,0.444,2.675,0.444
			s1.704,0.997,3.424,1.228c1.721,0.23,2.884-0.318,2.884-0.318s0.341,1.926,2.628,2.552c2.288,0.627,4.029-0.101,4.029-0.101
			s0.946,0.596,2.662,1.018c1.717,0.425,2.692-0.322,2.692-0.322s2.287,0.628,3.82,0.662c1.533,0.034,2.884-0.319,3.123-2.424
			c0.239-2.105,0.835-3.049,0.835-3.049s2.684,0.061,4.989-0.079c2.304-0.142,4.046-0.868,5.41-1.797
			c1.364-0.928,4.29-3.164,6.212-3.311c1.921-0.15,5.036-2.189,5.815-2.745c0.78-0.561,2.744-2.625,2.992-5.112
			c0.248-2.487,1.429-3.803,1.841-5.136c0.414-1.334,0.074-2.229,0.598-3.08c0.522-0.851,0.819-1.275,0.819-1.275l0.418,0.584
			c0,0,0.743-1.061,0.766-2.067c0.022-1.006,0.262-2.056,0.425-2.915c0.163-0.859,0.475-1.955,0.475-1.955l0.17,0.963
			c0,0,1.195-0.884,1.583-2.17c0.388-1.285,1.093-3.835,1.625-5.117c0.532-1.283,1.063-2.494,1.434-2.989
			c0.371-0.495,2.543-1.165,2.543-1.165s0.576,3.177,0.978,4.48c0.402,1.304,1.059,4.051,1.759,4.93l0.18-1.579
			c0,0,0.513,2.745,1.491,4.061c0.977,1.317,1.52,2.767,2.343,4.511c0.824,1.746,2.363,3.65,2.363,3.65s0.684,1.598,1.082,3.044
			c0.399,1.448,1.076,3.334,1.488,4.205c0.412,0.873,1.49,4.06,1.608,5.215c0.118,1.152,0.351,3.603,0.351,3.603
			s-0.5,3.01,0.34,4.033c0.841,1.027,3.147,0.792,3.147,0.792s1.86,0.474,3.579,0.8c1.718,0.325,2.744-0.514,2.744-0.514
			s1.278,0.747,2.86,0.782c1.581,0.035,2.175-0.813,2.175-0.813s1.281,0.604,2.007,0.332
			C433.211,385.146,433.939,384.73,433.546,382.995z M302.098,312.727c-0.309,0.292-0.628,0.593-0.967,0.879
			c-0.341,0.28-0.7,0.567-1.056,0.816c-0.387,0.264-0.761,0.483-1.146,0.69c-0.389,0.208-0.788,0.385-1.175,0.554
			c-0.249,0.104-0.493,0.199-0.734,0.291c0.458-0.652,0.938-1.323,1.462-1.948c0.323-0.402,0.668-0.745,1.013-1.11
			c0.334-0.365,0.706-0.688,1.042-1.021c0.265-0.241,0.514-0.468,0.764-0.694c0.388,0.476,0.729,0.934,0.988,1.356
			C302.225,312.602,302.164,312.664,302.098,312.727z M371.12,370.37c-2.479,1.527-4.371,2.491-4.371,2.491
			c0.172-1.29,1.825-4.418,1.825-4.418s0.464-1.428,0.781-2.715c0.317-1.287,0.343-2.438,0.675-4.443
			c0.3-1.813,2.726-7.389,2.756-7.418c0,0,0.626,5.865,1.132,7.219c0.543,1.45,0.335,4.32,0.436,6.193
			C374.455,369.151,373.598,368.844,371.12,370.37z"/>
		<path d="M307.428,368.566c-0.438-1.096-0.987-3.398-2.85-5.043c-1.864-1.645-4.166-2.302-4.166-2.302
			c-0.329-0.657-1.315-2.412-3.069-3.508c-1.754-1.096-4.604-0.768-5.919-1.863c-1.316-1.097-3.508-7.784-4.166-10.743
			c-0.657-2.96-0.876-4.823-0.986-7.783c-0.109-2.96-1.863-7.016-2.85-9.317c-0.986-2.302-1.096-4.933-1.096-4.933l0.658,0.658
			c0-1.973-0.548-4.933-0.877-7.125c-0.329-2.192-0.658-4.495-0.658-8.002c0-3.508,0.548-9.976,0.768-12.168
			c0.219-2.192-0.439-3.398-0.768-4.933c-0.329-1.535-0.658-4.823-0.658-4.823l0.658,1.535c-0.109-1.535-0.438-3.617-0.329-5.042
			c0.11-1.425,0.877-5.043,0.987-8.331s-0.877-6.796-0.548-8.77c0.329-1.973,1.096-5.152,1.425-8.66
			c0.329-3.508,0.109-6.249,0.109-6.249l0.548,1.864c0,0,0.109-5.152-0.109-7.783c-0.22-2.631-0.548-6.906-0.768-8.879
			c-0.219-1.973-1.315-3.837-1.973-6.138c-0.658-2.302-0.439-5.262-0.439-5.262l0.548,1.425c0,0,0.548-1.754,0.11-4.166
			c-0.439-2.412-1.343-6.852-1.59-10.058c-0.246-3.206-2.22-7.235-2.22-7.235s1.836-3.645,2.056-6.824
			c0.219-3.179,0-4.056,0.658-6.358c0.658-2.302,1.206-3.618,2.192-5.7c0.986-2.083,1.096-4.933,1.096-4.933
			s0.548,1.096,0.986,2.631c0.439,1.535,0.548,1.315,0.329,4.714c-0.219,3.398,0.877,9.317,1.535,10.413
			c0.658,1.097,3.179,2.851,3.618,2.521c0.438-0.329,1.096-0.987,1.315-2.302c0.219-1.316-0.439-5.81-0.329-6.577
			c0.11-0.767,3.289-2.74,4.385-4.275c1.096-1.535,0.329-3.617-0.438-5.81c-0.767-2.192-0.986-5.043-1.425-7.454
			c-0.439-2.411-2.631-6.797-3.837-9.208c-1.206-2.412-3.069-5.7-3.946-7.126c-0.877-1.425-1.316-4.166-1.863-6.577
			c-0.548-2.412-3.508-4.385-4.385-5.591c-0.877-1.206-3.289-3.618-4.823-4.275c-1.535-0.658-2.631,0.109-2.631,0.109
			c-0.822-1.863-5.426-5.372-9.702-6.852c-4.275-1.479-10.194-2.302-10.194-2.302s-5.262-1.315-12.333,0.329
			c-7.07,1.645-11.51,6.249-11.51,6.249s-3.289,0.493-5.919,1.315c-2.631,0.822-6.248,2.795-8.879,6.084
			c-2.631,3.289-2.631,4.111-4.275,7.564c-1.645,3.453-7.071,7.728-8.879,10.359c-1.809,2.631-2.138,4.439-1.645,7.893
			c0.493,3.453,0.493,4.275,0.658,7.4c0.165,3.124,5.755,9.373,8.057,11.345c2.302,1.974,3.289,1.974,3.946,4.439
			c0.658,2.467-0.165,5.591,1.48,5.098c0.71-0.213,2.302-2.302,2.795-3.946c0.211-0.703,1.266-2.319,1.645-3.617
			c0.507-1.736-0.493-8.551-0.493-8.551c0,0.113,0.493,1.973,1.48,3.947c0.986,1.973,1.151,1.479,1.644,3.617
			c0.493,2.138-1.126,3.859-1.48,4.604c-0.766,1.608-3.262,4.084-3.947,4.769c-1.479,1.48-3.618,2.631-6.248,6.413
			c-2.631,3.782-6.742,7.071-9.537,10.853c-2.795,3.782-5.426,11.839-5.426,11.839s-5.098,3.782-9.537,8.55
			c-4.439,4.769-6.248,10.688-11.181,15.785c-4.933,5.097-14.799,13.977-17.265,17.265c-2.467,3.289-9.866,10.359-13.319,13.319
			c-3.453,2.96-6.906,7.564-11.017,13.154c-4.11,5.591-9.866,18.416-9.866,18.416s-3.782,6.249-6.413,10.853
			c-2.631,4.604-2.631,13.319-2.96,13.812c-0.329,0.493-1.645,2.96-2.631,2.795c-0.986-0.164-7.235,2.302-10.853,3.289
			c-3.617,0.986-8.55,0.986-11.182,0.822c-2.63-0.165-8.386,0.658-11.181,0.493c-2.796-0.164-5.591-1.48-5.591-1.48
			s-4.439-1.151-8.386-1.479c-3.947-0.329-11.182,1.15-11.182,1.15c-0.987-0.329-6.248-0.164-9.866,1.151
			c-1.295,0.471-2.576,0.712-3.836,1.315c-1.261,0.603-2.138,1.59-2.138,1.59l0.603-0.055c0,0-0.66,0.453-1.206,0.876
			c-0.546,0.423-0.798,0.876-0.877,1.096c-0.19,0.531,0.119,1.058,0.548,1.754c0.382,0.62,1.46,2.046,1.46,2.046l-0.638-0.182
			c0,0,0.866,1.193,1.48,1.589c0.602,0.389,1.718,0.748,1.918,0.932c1.973,1.809,6.796,2.192,6.796,2.192s3.453,0.822,5.755,2.302
			c2.302,1.48,6.577,3.125,13.812,3.289c7.235,0.164,8.057,0,8.057,0l-1.644,0.658c0,0,1.151,0.822,6.577,1.973
			c5.426,1.15,13.154-0.329,18.252-0.986c5.097-0.658,13.319-1.809,13.319-1.809s0.658,1.15,3.124,2.631
			c2.466,1.479,11.51,3.124,11.51,3.124s-0.658,1.974,2.631,3.946c3.289,1.973,4.44,2.96,9.208,2.467
			c4.768-0.494,24.007,2.466,32.229,2.466s21.869,0.165,24.829,0.493c2.96,0.329,3.946,1.809,6.084,2.631
			c2.138,0.822,5.919,0,5.919,0c2.302,0.658,3.124,0.164,4.44,0c1.315-0.164,1.973-1.809,1.973-1.809
			c0.493,0.165,2.631-0.164,3.453-0.657c0.822-0.493,0.822-2.631-0.493-4.276c-1.315-1.643-2.795-1.314-3.946-2.301
			c-1.151-0.986-2.467-1.645-5.591-2.631c-3.124-0.986-6.413-3.508-6.413-3.508c0.658-0.219,3.617-1.426,5.262-1.535
			c1.644-0.109,4.056-1.096,5.591-2.302c1.535-1.206,1.973-2.412,3.617-4.933c1.409-2.16,1.69-4.074,1.743-4.58
			c0-0.046,0.004-0.091,0.011-0.134c0,0-0.003,0.049-0.011,0.134c-0.015,0.662,0.559,1.62,0.559,1.62
			c0.109-1.315,1.316-2.85,2.741-5.152c1.425-2.302,3.179-5.152,3.179-5.152s2.85,6.797,3.289,8.989
			c0.438,2.191,0.658,5.042,0.877,7.783c0.219,2.74,1.864,4.385,1.864,4.385c-0.109-0.549-0.11-1.974-0.11-1.974
			s1.645,3.509,2.741,5.372c1.096,1.863,3.398,3.178,5.152,3.836c1.754,0.658,4.495,3.18,5.701,4.166
			c1.205,0.986,2.192,2.192,4.165,3.727c1.974,1.535,0.987,2.96,2.521,4.057c1.535,1.096,3.727,0.877,5.919,1.754
			c2.192,0.876,3.946,0.109,7.126,0.876c3.179,0.768,5.262-0.438,7.345-0.767c2.083-0.328,4.384-0.877,4.384-0.877
			s2.193,0.109,4.166,0.439c1.973,0.329,5.152-0.657,5.919-0.987c0.767-0.328,1.863-0.109,2.631-0.438
			c0.767-0.33,0.767-0.768,0.767-0.768s1.206,0,1.974,0c0.767,0,2.63-1.096,2.63-1.096s1.425,0.547,1.645,0.109
			c0.219-0.44-1.316-1.535-1.316-1.535s0-0.986-0.438-2.412c-0.439-1.424-1.754-1.863-2.85-3.617
			c-1.096-1.754-3.398-3.18-3.398-3.18s2.521-0.109,4.165,0.11c1.645,0.22,2.741-0.11,3.618-0.439
			c0.877-0.328,1.097-0.986,1.097-0.986s3.398,0.438,5.043,0.548c1.644,0.11,3.836-0.548,5.262-0.986
			c1.425-0.439,3.069-0.657,3.617-0.548c0.548,0.109,1.206,0.548,1.425-0.22c0.219-0.767-0.548-2.302-0.548-2.302
			s1.316,0.219,1.425-0.439C308.305,370.101,307.866,369.662,307.428,368.566z M273.336,372.897
			c-2.467-0.658-4.111-0.986-6.084-1.809c-1.973-0.822-3.124-1.645-4.604-4.604c-1.48-2.96-3.453-3.782-4.769-6.248
			c-1.315-2.467-1.48-4.605-1.809-7.565c-0.329-2.96-0.658-6.413-1.645-9.701c-0.987-3.288-2.302-4.933-2.795-8.221
			c-0.493-3.289-1.479-10.031-1.479-10.031c4.604-2.137,7.893-6.083,7.893-6.083s0,1.151-0.165,2.795
			c-0.164,1.645,0.165,3.289,0.165,3.289c0.329-0.822,0.658-2.137,0.658-2.137c0,1.315,1.151,4.111,1.315,6.083
			c0.165,1.973,0.055,3.563-0.439,6.03c-0.493,2.466,0.493,4.494,0.493,4.494l0.603-1.535c0,0,0.055,4.33,0.822,7.125
			c0.768,2.795,1.151,1.974,2.302,3.124c1.151,1.151,1.809,1.809,2.796,4.769c0.986,2.96,1.809,7.729,2.631,10.195
			c0.822,2.466,0.822,3.288,2.137,5.262c1.316,1.973,0.823,1.315,3.289,1.973c2.466,0.658,4.933,3.454,4.933,3.454
			C277.94,372.567,275.802,373.555,273.336,372.897z"/>
	</g>
</g>
</svg>
